<?xml version="1.0" standalone="no"?>
<!DOCTYPE svg PUBLIC "-//W3C//DTD SVG 20010904//EN"
 "http://www.w3.org/TR/2001/REC-SVG-20010904/DTD/svg10.dtd">
<svg version="1.0" xmlns="http://www.w3.org/2000/svg"
 width="700.000000pt" height="700.000000pt" viewBox="0 0 700.000000 700.000000"
 preserveAspectRatio="xMidYMid meet">
<metadata>
Created by potrace 1.14, written by Peter Selinger 2001-2017
</metadata>
<g transform="translate(0.000000,700.000000) scale(0.100000,-0.100000)"
fill="#000000" stroke="none">
<path d="M926 6989 c-149 -22 -328 -92 -455 -179 -83 -55 -190 -158 -252 -239
-69 -91 -153 -266 -186 -386 l-28 -100 0 -2585 0 -2585 27 -98 c31 -112 97
-257 158 -346 55 -83 158 -190 239 -252 91 -69 266 -153 386 -186 l100 -28
2585 0 2585 0 100 28 c120 33 295 117 386 186 81 62 184 169 239 252 61 89
127 234 158 346 l27 98 0 2585 0 2585 -28 100 c-33 120 -117 295 -186 386 -62
81 -169 184 -252 239 -89 61 -234 127 -346 158 l-98 27 -2550 1 c-1403 1
-2577 -2 -2609 -7z m2991 -625 c98 -47 122 -110 104 -271 -19 -169 -28 -199
-75 -248 -60 -62 -99 -71 -258 -55 -128 13 -128 13 -128 39 0 28 60 559 65
577 6 19 232 -13 292 -42z m-997 -229 c-27 -126 -48 -230 -45 -233 8 -9 155
30 155 41 0 6 -8 47 -17 89 -9 43 -15 80 -12 82 2 2 20 6 40 10 l37 7 17 -78
c22 -106 22 -105 45 -98 21 7 23 3 34 -46 5 -21 2 -28 -15 -32 -19 -5 -21 -10
-15 -50 8 -49 6 -51 -41 -62 -32 -6 -33 -6 -39 34 -4 23 -10 44 -15 46 -4 3
-58 -6 -120 -20 -61 -14 -118 -25 -125 -25 -33 0 -27 71 27 311 l53 239 41 8
c22 5 41 8 42 7 2 -1 -20 -104 -47 -230z m1600 92 c25 -13 58 -41 75 -66 26
-37 30 -51 30 -109 0 -54 -8 -89 -43 -183 -48 -127 -83 -179 -143 -209 -106
-55 -261 11 -299 126 -18 54 -8 116 40 247 48 133 89 189 155 213 52 19 126
11 185 -19z m-2351 -239 c-29 -196 -39 -173 109 -250 70 -37 155 -82 190 -101
l64 -34 -46 -27 -46 -27 -154 81 -154 80 -5 -32 c-21 -119 -21 -122 16 -179
62 -98 61 -95 21 -119 -19 -12 -37 -21 -38 -19 -12 14 -317 521 -314 523 1 1
17 12 35 24 l32 22 56 -92 c95 -155 115 -184 115 -168 2 40 47 390 51 393 15
11 75 47 80 47 3 0 -2 -55 -12 -122z m2909 -41 c59 -39 95 -105 95 -176 0 -31
-4 -64 -9 -74 -9 -16 -12 -15 -43 6 -28 19 -33 29 -35 67 -2 56 -26 93 -73
115 -31 15 -42 16 -76 5 -51 -15 -77 -43 -149 -161 -63 -101 -72 -143 -42
-200 27 -53 107 -74 166 -43 28 15 33 14 64 -2 19 -10 34 -22 34 -26 0 -4 -19
-20 -41 -35 -56 -37 -148 -44 -205 -15 -82 42 -124 105 -124 187 0 59 14 91
92 211 98 150 135 176 239 171 52 -2 75 -8 107 -30z m600 -517 c1 -3 -10 -18
-26 -33 l-28 -27 -59 60 -60 60 -190 -190 -191 -191 -28 30 -29 30 179 185
c99 102 180 190 182 195 2 5 -23 34 -55 64 l-58 56 29 30 30 31 150 -148 c83
-81 152 -149 154 -152z m-3995 194 c45 -23 224 -201 248 -248 31 -58 28 -137
-8 -194 -64 -104 -179 -140 -279 -89 -62 32 -217 189 -244 248 -48 106 -4 225
103 278 51 25 134 28 180 5z m4165 -440 c46 -27 96 -102 107 -160 7 -42 -8
-100 -38 -145 -28 -43 -216 -172 -281 -195 -98 -33 -192 4 -246 99 -23 40 -30
64 -30 105 0 98 29 136 175 235 149 102 220 115 313 61z m-4573 -32 c68 -24
247 -142 278 -184 39 -51 52 -107 38 -163 -28 -110 -111 -180 -212 -179 -62 1
-121 29 -254 121 -95 66 -129 116 -130 191 0 101 58 184 152 218 50 17 68 17
128 -4z m1776 -272 c97 -18 211 -83 297 -168 42 -42 93 -101 112 -129 19 -29
37 -52 40 -52 3 0 21 23 40 52 19 28 70 87 112 129 231 230 525 235 758 12
135 -130 235 -297 310 -521 146 -438 146 -968 0 -1406 -162 -485 -480 -754
-794 -672 -137 36 -294 155 -386 292 -19 29 -37 52 -40 52 -3 0 -21 -23 -40
-52 -19 -28 -69 -86 -110 -127 -187 -186 -412 -228 -624 -118 -72 38 -223 184
-281 272 -119 184 -208 435 -252 716 -25 161 -25 519 0 680 44 281 133 532
252 716 64 97 209 236 288 274 114 56 208 70 318 50z m3143 -306 c49 -135 57
-194 31 -244 -48 -92 -209 -128 -270 -60 -10 11 -22 20 -26 20 -4 0 -49 -46
-100 -102 -51 -57 -96 -104 -100 -106 -4 -2 -15 17 -24 42 l-17 45 97 103
c105 112 105 111 71 192 l-15 36 -93 -34 c-51 -19 -105 -39 -120 -45 -26 -10
-29 -8 -43 25 -8 20 -15 39 -15 43 0 6 546 209 566 210 7 1 33 -56 58 -125z
m-4815 -65 c17 -6 31 -14 31 -17 -1 -20 -129 -357 -137 -359 -9 -3 -562 192
-571 201 -6 6 26 76 35 76 4 0 117 -40 250 -89 l243 -88 19 52 c11 29 34 93
52 144 17 50 35 91 39 91 4 0 21 -5 39 -11z m-100 -1605 c1 -6 -111 -46 -249
-89 -137 -43 -250 -84 -250 -90 0 -6 20 -72 44 -148 l43 -136 -34 -12 c-19 -6
-38 -7 -43 -3 -9 10 -112 330 -114 353 -1 10 86 42 289 106 l290 92 12 -31 c6
-17 12 -36 12 -42z m4618 55 c60 -16 119 -71 128 -122 9 -44 2 -44 170 -13 72
13 131 23 132 22 5 -5 -29 -96 -35 -96 -4 -1 -68 -11 -142 -23 l-135 -22 -21
-61 -22 -60 101 -34 c162 -52 148 -43 133 -87 -8 -21 -18 -37 -22 -37 -24 4
-560 177 -567 183 -10 10 59 226 89 277 15 27 38 49 66 63 49 24 62 25 125 10z
m-4448 -532 c113 -75 136 -235 46 -327 -50 -52 -233 -158 -294 -171 -66 -14
-120 2 -173 49 -97 87 -105 222 -19 308 34 35 201 137 259 159 55 22 133 14
181 -18z m4211 -18 c48 -11 251 -132 286 -171 57 -61 72 -164 35 -236 -24 -46
-76 -97 -114 -111 -47 -18 -118 -13 -172 13 -66 30 -214 127 -242 157 -31 34
-53 91 -53 137 0 83 84 194 162 212 45 11 47 11 98 -1z m-335 -363 l30 -25
-63 -63 -62 -63 192 -186 193 -187 -29 -31 -29 -30 -194 186 -194 186 -58 -64
-59 -64 -30 29 -31 29 146 153 c81 85 149 154 152 154 3 0 20 -11 36 -24z
m-3547 -75 c77 -40 132 -122 132 -199 0 -66 -42 -131 -146 -227 -52 -48 -112
-96 -132 -106 -97 -50 -232 5 -283 116 -46 99 -12 182 127 310 52 48 112 96
132 106 47 25 122 24 170 0z m356 -314 l29 -24 -81 -128 c-45 -71 -80 -130
-78 -132 2 -2 87 26 190 62 l187 65 40 -26 c23 -14 38 -28 34 -32 -3 -4 -68
-27 -143 -52 l-137 -45 -6 -175 c-4 -96 -7 -194 -8 -218 l-1 -43 -45 31 -45
31 7 169 c3 94 2 170 -2 170 -5 0 -39 -10 -77 -22 -67 -22 -69 -23 -114 -95
-25 -40 -48 -73 -50 -73 -3 0 -20 10 -38 23 l-33 22 164 258 c91 141 168 257
171 257 4 0 20 -11 36 -23z m2873 -32 c24 -14 43 -30 43 -35 0 -4 -16 -18 -35
-30 -32 -20 -36 -20 -57 -6 -12 9 -42 16 -65 16 -35 0 -50 -6 -81 -34 -34 -31
-37 -39 -36 -85 0 -46 7 -61 70 -153 73 -109 118 -148 168 -148 69 0 135 76
122 142 -5 24 0 31 32 53 34 23 37 24 44 8 3 -10 7 -44 7 -76 1 -93 -40 -156
-129 -196 -72 -33 -140 -24 -207 25 -48 36 -181 240 -194 299 -17 74 1 128 61
186 75 74 168 86 257 34z m-549 -251 c76 -31 106 -74 169 -241 48 -128 50
-190 8 -259 -42 -66 -106 -99 -195 -99 -76 0 -117 21 -161 84 -30 42 -103 228
-113 287 -26 152 149 288 292 228z m-1384 -125 c4 -4 -55 -91 -134 -194 -78
-103 -140 -188 -138 -190 8 -7 150 -35 157 -31 4 3 16 43 26 90 l17 85 32 -6
c17 -3 35 -9 40 -14 5 -5 2 -41 -8 -88 -18 -82 -16 -101 10 -101 11 0 13 -7 8
-27 -10 -49 -13 -53 -36 -50 -18 2 -23 -5 -31 -40 -9 -46 -9 -46 -56 -37 -32
7 -32 7 -26 54 8 55 19 49 -132 81 -62 13 -113 28 -113 34 0 38 34 93 165 262
144 189 147 192 178 186 18 -3 36 -9 41 -14z m812 -24 c54 -16 106 -62 124
-110 15 -38 40 -216 40 -283 0 -89 -41 -153 -123 -187 -36 -15 -265 -50 -273
-42 -5 4 -83 600 -80 604 3 3 206 30 237 32 14 0 48 -6 75 -14z"/>
<path d="M3677 6104 c-20 -169 -24 -220 -14 -226 7 -4 32 -9 57 -10 163 -8
188 16 210 205 14 123 9 165 -23 194 -36 33 -61 42 -134 49 l-70 7 -26 -219z"/>
<path d="M4338 6141 c-29 -25 -44 -55 -77 -144 -44 -121 -49 -162 -26 -207 39
-75 157 -80 212 -10 7 8 31 67 53 130 49 135 49 176 2 223 -23 23 -42 31 -79
34 -45 5 -53 2 -85 -26z"/>
<path d="M1541 5543 c-63 -31 -89 -110 -57 -171 8 -15 57 -69 109 -119 92 -91
95 -93 142 -93 95 0 154 84 120 167 -15 36 -132 164 -185 203 -39 28 -89 33
-129 13z"/>
<path d="M5693 5115 c-17 -7 -72 -41 -123 -75 -92 -62 -130 -105 -130 -148 0
-38 31 -93 64 -114 53 -33 101 -20 219 57 56 38 111 79 121 92 44 59 22 149
-45 185 -40 21 -63 22 -106 3z"/>
<path d="M1165 5071 c-35 -15 -74 -62 -81 -97 -9 -47 1 -78 35 -111 41 -41
208 -142 247 -149 48 -9 97 19 124 70 45 84 9 139 -157 238 -81 48 -133 64
-168 49z"/>
<path d="M2835 4802 c-293 -101 -521 -503 -585 -1032 -13 -109 -13 -431 0
-540 60 -491 265 -883 528 -1008 141 -67 299 -54 430 33 70 48 149 130 208
215 l47 69 -42 90 c-114 247 -171 535 -171 871 0 336 57 624 171 871 l42 90
-47 69 c-93 135 -206 230 -320 270 -75 25 -191 26 -261 2z m48 -725 c63 -37
132 -117 172 -201 109 -227 109 -529 0 -753 -45 -92 -120 -174 -191 -209 -46
-22 -64 -26 -121 -22 -85 5 -134 28 -198 93 -64 64 -97 121 -135 232 -102 307
-16 706 183 841 63 43 95 52 173 48 56 -2 82 -9 117 -29z"/>
<path d="M3895 4797 c-296 -113 -525 -546 -574 -1087 -45 -486 69 -984 294
-1282 74 -98 150 -164 245 -211 61 -30 71 -32 176 -32 108 0 112 1 190 39 192
94 362 342 454 659 63 221 75 315 75 617 0 302 -12 396 -75 617 -91 317 -262
565 -454 659 -72 35 -86 39 -175 41 -80 3 -106 -1 -156 -20z m45 -713 c104
-48 200 -186 247 -354 25 -93 25 -367 0 -460 -45 -161 -145 -309 -242 -355
-62 -30 -160 -32 -223 -5 -74 32 -154 120 -201 222 -59 127 -76 210 -76 368 0
158 17 241 75 367 95 205 262 291 420 217z"/>
<path d="M6003 4561 c-40 -14 -74 -29 -77 -32 -8 -8 52 -161 71 -181 11 -12
31 -18 60 -18 36 0 50 6 74 29 16 17 29 40 28 53 -1 37 -55 173 -70 175 -8 1
-46 -11 -86 -26z"/>
<path d="M5809 2869 c-14 -5 -31 -20 -37 -32 -13 -25 -52 -146 -52 -162 0 -9
149 -65 171 -65 3 0 18 40 34 90 23 74 27 94 17 114 -21 46 -85 73 -133 55z"/>
<path d="M1199 2309 c-130 -76 -159 -107 -159 -170 0 -53 23 -90 72 -115 44
-23 84 -13 185 46 123 73 150 95 163 136 16 49 -9 118 -54 145 -54 33 -91 25
-207 -42z"/>
<path d="M5563 2316 c-65 -29 -92 -119 -55 -180 9 -16 65 -58 127 -97 95 -60
116 -69 157 -69 106 0 163 120 95 202 -31 37 -217 148 -258 153 -19 3 -49 -1
-66 -9z"/>
<path d="M1625 1881 c-48 -30 -193 -185 -200 -214 -20 -77 40 -157 116 -157
57 0 82 17 184 119 l90 91 0 56 c0 51 -3 58 -37 90 -31 28 -46 34 -80 34 -25
0 -56 -8 -73 -19z"/>
<path d="M4313 1280 c-36 -21 -63 -66 -63 -104 0 -13 21 -79 47 -146 57 -149
83 -175 163 -168 60 6 95 34 112 90 10 34 8 47 -27 140 -21 57 -46 120 -56
140 -33 66 -112 87 -176 48z"/>
<path d="M3697 1143 c-26 -4 -28 -7 -23 -36 3 -18 15 -115 27 -217 12 -102 25
-188 28 -191 9 -10 141 11 173 27 16 8 36 30 45 49 15 31 15 48 4 157 -14 136
-30 182 -72 203 -27 14 -115 18 -182 8z"/>
</g>
</svg>
